<?xml version="1.0" encoding="UTF-8"?>
<svg id="b" data-name="Layer 2" xmlns="http://www.w3.org/2000/svg" viewBox="0 0 124.68 60">
  <defs>
    <style>
      .d {
        fill: #43a047;
        stroke-width: 0px;
      }
    </style>
  </defs>
  <g id="c" data-name="Layer 1">
    <g>
      <path class="d" d="m121.76,9.84l-4.82.05c.84.92,1.61,1.91,2.33,2.93l2.49-2.98Z"/>
      <path class="d" d="m124.54,27.15c-.51-5.35-2.4-10.22-5.28-14.33l-29.82,35.76-.02-.02-.02.02-15.29-13.01,6.32-7.8,7.63,6.49,20.73-24.29,8.15-.09C110.8,3.1,101.64-.8,91.83.14c-12.67,1.21-22.73,10.13-26.01,21.67l7.84,22.92,3.26.38v3.36h-5.87c6.1,7.79,15.91,12.4,26.49,11.39,16.49-1.58,28.59-16.22,27.01-32.72Z"/>
      <path class="d" d="m41.1,12.89v-3.54h-14.28v3.54l5.16.34v18.62c0,8.4-3.12,11.88-7.92,11.88-5.52,0-7.98-3.3-7.98-12.06v-4.56c0-4.6,0-9.23.09-13.79l4.47-.43v-3.54H0v3.54l4.11.4c.09,4.64.09,9.29.09,13.82v6.54c0,11.82,6.66,16.02,15.6,16.02,10.62,0,16.44-5.64,16.44-18.42V13.23l4.86-.34Z"/>
      <path class="d" d="m64.82,32.85c-.37-3.83.01-7.55,1-11.04l-4.26-12.46h-7.2l-11.99,34.89-4.75.69v3.54h12.6v-3.54l-4.11-.69,2.1-6.57h11.33l2.13,6.87-4.12.57v3.36h13.51c-3.41-4.36-5.67-9.7-6.23-15.62Zm-15.4,1.04l4.54-14.23,4.41,14.23h-8.95Z"/>
    </g>
  </g>
</svg>